<?xml version="1.0" encoding="UTF-8" standalone="no"?>
<!DOCTYPE svg PUBLIC "-//W3C//DTD SVG 1.1//EN"
 "http://www.w3.org/Graphics/SVG/1.1/DTD/svg11.dtd">
<!-- Generated by graphviz version 12.1.0 (20240811.2233)
 -->
<!-- Title: EnkryptAI Lite Architecture Pages: 1 -->
<svg width="1132pt" height="2391pt"
 viewBox="0.00 0.00 1132.00 2391.35" xmlns="http://www.w3.org/2000/svg" xmlns:xlink="http://www.w3.org/1999/xlink">
<g id="graph0" class="graph" transform="scale(1 1) rotate(0) translate(144 2247.35)">
<title>EnkryptAI Lite Architecture</title>
<text text-anchor="middle" x="422" y="-11.3" font-family="Sans-Serif" font-size="16.00" fill="#2d3748">EnkryptAI Lite Architecture</text>
<g id="clust1" class="cluster">
<title>cluster_EKS Production Cluster</title>
<path fill="#f7fafc" stroke="#aeb6be" d="M20,-38.5C20,-38.5 824,-38.5 824,-38.5 830,-38.5 836,-44.5 836,-50.5 836,-50.5 836,-1472.15 836,-1472.15 836,-1478.15 830,-1484.15 824,-1484.15 824,-1484.15 20,-1484.15 20,-1484.15 14,-1484.15 8,-1478.15 8,-1472.15 8,-1472.15 8,-50.5 8,-50.5 8,-44.5 14,-38.5 20,-38.5"/>
<text text-anchor="middle" x="91.75" y="-1466.85" font-family="Sans-Serif" font-size="14.00" fill="#2d3748">EKS Production Cluster</text>
</g>
<g id="clust2" class="cluster">
<title>cluster_Infrastructure Services</title>
<path fill="#f7fafc" stroke="#aeb6be" d="M346,-1004.3C346,-1004.3 613,-1004.3 613,-1004.3 619,-1004.3 625,-1010.3 625,-1016.3 625,-1016.3 625,-1436.65 625,-1436.65 625,-1442.65 619,-1448.65 613,-1448.65 613,-1448.65 346,-1448.65 346,-1448.65 340,-1448.65 334,-1442.65 334,-1436.65 334,-1436.65 334,-1016.3 334,-1016.3 334,-1010.3 340,-1004.3 346,-1004.3"/>
<text text-anchor="middle" x="417" y="-1431.35" font-family="Sans-Serif" font-size="14.00" fill="#2d3748">Infrastructure Services</text>
</g>
<g id="clust3" class="cluster">
<title>cluster_Ingress</title>
<path fill="#ece8f6" stroke="#aeb6be" d="M354,-1012.3C354,-1012.3 605,-1012.3 605,-1012.3 611,-1012.3 617,-1018.3 617,-1024.3 617,-1024.3 617,-1401.15 617,-1401.15 617,-1407.15 611,-1413.15 605,-1413.15 605,-1413.15 354,-1413.15 354,-1413.15 348,-1413.15 342,-1407.15 342,-1401.15 342,-1401.15 342,-1024.3 342,-1024.3 342,-1018.3 348,-1012.3 354,-1012.3"/>
<text text-anchor="middle" x="371" y="-1397.75" font-family="Sans-Serif" font-size="12.00" fill="#2d3748">Ingress</text>
</g>
<g id="clust4" class="cluster">
<title>cluster_Data Services</title>
<path fill="#ebf3e7" stroke="#aeb6be" d="M346,-46.5C346,-46.5 772,-46.5 772,-46.5 778,-46.5 784,-52.5 784,-58.5 784,-58.5 784,-282.6 784,-282.6 784,-288.6 778,-294.6 772,-294.6 772,-294.6 346,-294.6 346,-294.6 340,-294.6 334,-288.6 334,-282.6 334,-282.6 334,-58.5 334,-58.5 334,-52.5 340,-46.5 346,-46.5"/>
<text text-anchor="middle" x="380.25" y="-279.2" font-family="Sans-Serif" font-size="12.00" fill="#2d3748">Data Services</text>
</g>
<g id="clust5" class="cluster">
<title>cluster_Storage &amp; Cache</title>
<path fill="#ece8f6" stroke="#aeb6be" d="M354,-54.5C354,-54.5 605,-54.5 605,-54.5 611,-54.5 617,-60.5 617,-66.5 617,-66.5 617,-249.35 617,-249.35 617,-255.35 611,-261.35 605,-261.35 605,-261.35 354,-261.35 354,-261.35 348,-261.35 342,-255.35 342,-249.35 342,-249.35 342,-66.5 342,-66.5 342,-60.5 348,-54.5 354,-54.5"/>
<text text-anchor="middle" x="396.88" y="-245.95" font-family="Sans-Serif" font-size="12.00" fill="#2d3748">Storage &amp; Cache</text>
</g>
<g id="clust6" class="cluster">
<title>cluster_Messaging</title>
<path fill="#ece8f6" stroke="#aeb6be" d="M672,-54.5C672,-54.5 764,-54.5 764,-54.5 770,-54.5 776,-60.5 776,-66.5 776,-66.5 776,-249.35 776,-249.35 776,-255.35 770,-261.35 764,-261.35 764,-261.35 672,-261.35 672,-261.35 666,-261.35 660,-255.35 660,-249.35 660,-249.35 660,-66.5 660,-66.5 660,-60.5 666,-54.5 672,-54.5"/>
<text text-anchor="middle" x="699.12" y="-245.95" font-family="Sans-Serif" font-size="12.00" fill="#2d3748">Messaging</text>
</g>
<g id="clust7" class="cluster">
<title>cluster_Application Services</title>
<path fill="#ebf3e7" stroke="#aeb6be" d="M28,-302.6C28,-302.6 772,-302.6 772,-302.6 778,-302.6 784,-308.6 784,-314.6 784,-314.6 784,-984.3 784,-984.3 784,-990.3 778,-996.3 772,-996.3 772,-996.3 28,-996.3 28,-996.3 22,-996.3 16,-990.3 16,-984.3 16,-984.3 16,-314.6 16,-314.6 16,-308.6 22,-302.6 28,-302.6"/>
<text text-anchor="middle" x="80.62" y="-980.9" font-family="Sans-Serif" font-size="12.00" fill="#2d3748">Application Services</text>
</g>
<g id="clust8" class="cluster">
<title>cluster_AI Guardrails</title>
<path fill="#ece8f6" stroke="#aeb6be" d="M36,-310.6C36,-310.6 446,-310.6 446,-310.6 452,-310.6 458,-316.6 458,-322.6 458,-322.6 458,-951.05 458,-951.05 458,-957.05 452,-963.05 446,-963.05 446,-963.05 36,-963.05 36,-963.05 30,-963.05 24,-957.05 24,-951.05 24,-951.05 24,-322.6 24,-322.6 24,-316.6 30,-310.6 36,-310.6"/>
<text text-anchor="middle" x="68.38" y="-947.65" font-family="Sans-Serif" font-size="12.00" fill="#2d3748">AI Guardrails</text>
</g>
<g id="clust9" class="cluster">
<title>cluster_Red Team Testing</title>
<path fill="#ece8f6" stroke="#aeb6be" d="M513,-310.6C513,-310.6 764,-310.6 764,-310.6 770,-310.6 776,-316.6 776,-322.6 776,-322.6 776,-951.05 776,-951.05 776,-957.05 770,-963.05 764,-963.05 764,-963.05 513,-963.05 513,-963.05 507,-963.05 501,-957.05 501,-951.05 501,-951.05 501,-322.6 501,-322.6 501,-316.6 507,-310.6 513,-310.6"/>
<text text-anchor="middle" x="558.88" y="-947.65" font-family="Sans-Serif" font-size="12.00" fill="#2d3748">Red Team Testing</text>
</g>
<!-- c62ece2f119748ebbc4df8be71590c5c -->
<g id="node1" class="node">
<title>c62ece2f119748ebbc4df8be71590c5c</title>
<image xlink:href="/home/riteshsonawane/.local/lib/python3.13/site-packages/resources/onprem/client/users.png" width="100.8px" height="100.8px" preserveAspectRatio="xMinYMin meet" x="428.6" y="-2085.35"/>
<text text-anchor="middle" x="479" y="-1972.95" font-family="Sans-Serif" font-size="13.00" fill="#2d3436">End Users</text>
</g>
<!-- 3fb6e5d1ab904125929be59e7ae7d340 -->
<g id="node2" class="node">
<title>3fb6e5d1ab904125929be59e7ae7d340</title>
<image xlink:href="/home/riteshsonawane/.local/lib/python3.13/site-packages/resources/aws/network/route-53.png" width="100.8px" height="100.8px" preserveAspectRatio="xMinYMin meet" x="428.6" y="-1862.55"/>
<text text-anchor="middle" x="479" y="-1750.15" font-family="Sans-Serif" font-size="13.00" fill="#2d3436">DNS</text>
</g>
<!-- c62ece2f119748ebbc4df8be71590c5c&#45;&gt;3fb6e5d1ab904125929be59e7ae7d340 -->
<g id="edge1" class="edge">
<title>c62ece2f119748ebbc4df8be71590c5c&#45;&gt;3fb6e5d1ab904125929be59e7ae7d340</title>
<path fill="none" stroke="#7b8894" d="M479,-1966.59C479,-1966.59 479,-1891.9 479,-1891.9"/>
<polygon fill="#7b8894" stroke="#7b8894" points="482.5,-1891.9 479,-1881.9 475.5,-1891.9 482.5,-1891.9"/>
</g>
<!-- d4458ee9c756466fb0c98c4bd4a47f89 -->
<g id="node3" class="node">
<title>d4458ee9c756466fb0c98c4bd4a47f89</title>
<image xlink:href="/home/riteshsonawane/.local/lib/python3.13/site-packages/resources/aws/network/elb-network-load-balancer.png" width="100.8px" height="100.8px" preserveAspectRatio="xMinYMin meet" x="428.6" y="-1625.35"/>
<text text-anchor="middle" x="479" y="-1517.3" font-family="Sans-Serif" font-size="13.00" fill="#2d3436">Network Load Balancer</text>
<text text-anchor="middle" x="479" y="-1498.55" font-family="Sans-Serif" font-size="13.00" fill="#2d3436">(ingress&#45;nginx)</text>
</g>
<!-- 3fb6e5d1ab904125929be59e7ae7d340&#45;&gt;d4458ee9c756466fb0c98c4bd4a47f89 -->
<g id="edge2" class="edge">
<title>3fb6e5d1ab904125929be59e7ae7d340&#45;&gt;d4458ee9c756466fb0c98c4bd4a47f89</title>
<path fill="none" stroke="#7b8894" d="M479,-1743.86C479,-1743.86 479,-1668.98 479,-1668.98"/>
<polygon fill="#7b8894" stroke="#7b8894" points="482.5,-1668.98 479,-1658.98 475.5,-1668.98 482.5,-1668.98"/>
</g>
<!-- 49be3055b9f4486aa7b6ee7515fe0139 -->
<g id="node4" class="node">
<title>49be3055b9f4486aa7b6ee7515fe0139</title>
<image xlink:href="/home/riteshsonawane/.local/lib/python3.13/site-packages/resources/k8s/network/svc.png" width="100.8px" height="100.8px" preserveAspectRatio="xMinYMin meet" x="428.6" y="-1361.9"/>
<text text-anchor="middle" x="479" y="-1249.5" font-family="Sans-Serif" font-size="13.00" fill="#2d3436">NGINX Service</text>
</g>
<!-- d4458ee9c756466fb0c98c4bd4a47f89&#45;&gt;49be3055b9f4486aa7b6ee7515fe0139 -->
<g id="edge20" class="edge">
<title>d4458ee9c756466fb0c98c4bd4a47f89&#45;&gt;49be3055b9f4486aa7b6ee7515fe0139</title>
<path fill="none" stroke="#7b8894" d="M479,-1492.32C479,-1492.32 479,-1391.22 479,-1391.22"/>
<polygon fill="#7b8894" stroke="#7b8894" points="482.5,-1391.22 479,-1381.22 475.5,-1391.22 482.5,-1391.22"/>
</g>
<!-- f594bbbf23344da389d29ed6c8c505fb -->
<g id="node5" class="node">
<title>f594bbbf23344da389d29ed6c8c505fb</title>
<image xlink:href="/home/riteshsonawane/.local/lib/python3.13/site-packages/resources/k8s/compute/pod.png" width="100.8px" height="100.8px" preserveAspectRatio="xMinYMin meet" x="349.6" y="-1139.1"/>
<text text-anchor="middle" x="400" y="-1026.7" font-family="Sans-Serif" font-size="13.00" fill="#2d3436">NGINX Pod 1</text>
</g>
<!-- 49be3055b9f4486aa7b6ee7515fe0139&#45;&gt;f594bbbf23344da389d29ed6c8c505fb -->
<g id="edge3" class="edge">
<title>49be3055b9f4486aa7b6ee7515fe0139&#45;&gt;f594bbbf23344da389d29ed6c8c505fb</title>
<path fill="none" stroke="#7b8894" d="M439.5,-1243.14C439.5,-1243.14 439.5,-1168.45 439.5,-1168.45"/>
<polygon fill="#7b8894" stroke="#7b8894" points="443,-1168.45 439.5,-1158.45 436,-1168.45 443,-1168.45"/>
</g>
<!-- 47039549596b447684ef9b54e12c67a5 -->
<g id="node6" class="node">
<title>47039549596b447684ef9b54e12c67a5</title>
<image xlink:href="/home/riteshsonawane/.local/lib/python3.13/site-packages/resources/k8s/compute/pod.png" width="100.8px" height="100.8px" preserveAspectRatio="xMinYMin meet" x="508.6" y="-1139.1"/>
<text text-anchor="middle" x="559" y="-1026.7" font-family="Sans-Serif" font-size="13.00" fill="#2d3436">NGINX Pod 2</text>
</g>
<!-- 49be3055b9f4486aa7b6ee7515fe0139&#45;&gt;47039549596b447684ef9b54e12c67a5 -->
<g id="edge4" class="edge">
<title>49be3055b9f4486aa7b6ee7515fe0139&#45;&gt;47039549596b447684ef9b54e12c67a5</title>
<path fill="none" stroke="#7b8894" d="M519,-1243.14C519,-1243.14 519,-1168.45 519,-1168.45"/>
<polygon fill="#7b8894" stroke="#7b8894" points="522.5,-1168.45 519,-1158.45 515.5,-1168.45 522.5,-1168.45"/>
</g>
<!-- eb2f424503c748f4b0b738eb01623d40 -->
<g id="node7" class="node">
<title>eb2f424503c748f4b0b738eb01623d40</title>
<image xlink:href="/home/riteshsonawane/.local/lib/python3.13/site-packages/resources/k8s/network/svc.png" width="100.8px" height="100.8px" preserveAspectRatio="xMinYMin meet" x="349.6" y="-911.8"/>
<text text-anchor="middle" x="400" y="-799.4" font-family="Sans-Serif" font-size="13.00" fill="#2d3436">Guardrails Service</text>
</g>
<!-- f594bbbf23344da389d29ed6c8c505fb&#45;&gt;eb2f424503c748f4b0b738eb01623d40 -->
<g id="edge18" class="edge">
<title>f594bbbf23344da389d29ed6c8c505fb&#45;&gt;eb2f424503c748f4b0b738eb01623d40</title>
<path fill="none" stroke="#7b8894" d="M374.8,-1020.5C374.8,-1020.5 374.8,-941.06 374.8,-941.06"/>
<polygon fill="#7b8894" stroke="#7b8894" points="378.3,-941.06 374.8,-931.06 371.3,-941.06 378.3,-941.06"/>
</g>
<!-- 2790f7fc33f244a7bdd1ba4d8a7fd73c -->
<g id="node12" class="node">
<title>2790f7fc33f244a7bdd1ba4d8a7fd73c</title>
<image xlink:href="/home/riteshsonawane/.local/lib/python3.13/site-packages/resources/k8s/network/svc.png" width="100.8px" height="100.8px" preserveAspectRatio="xMinYMin meet" x="508.6" y="-911.8"/>
<text text-anchor="middle" x="559" y="-799.4" font-family="Sans-Serif" font-size="13.00" fill="#2d3436">Red Team Service</text>
</g>
<!-- f594bbbf23344da389d29ed6c8c505fb&#45;&gt;2790f7fc33f244a7bdd1ba4d8a7fd73c -->
<g id="edge16" class="edge">
<title>f594bbbf23344da389d29ed6c8c505fb&#45;&gt;2790f7fc33f244a7bdd1ba4d8a7fd73c</title>
<path fill="none" stroke="#7b8894" d="M425.2,-1020.56C425.2,-989.68 425.2,-959.97 425.2,-959.97 425.2,-959.97 559,-959.97 559,-959.97 559,-959.97 559,-941.1 559,-941.1"/>
<polygon fill="#7b8894" stroke="#7b8894" points="562.5,-941.1 559,-931.1 555.5,-941.1 562.5,-941.1"/>
</g>
<!-- 47039549596b447684ef9b54e12c67a5&#45;&gt;eb2f424503c748f4b0b738eb01623d40 -->
<g id="edge19" class="edge">
<title>47039549596b447684ef9b54e12c67a5&#45;&gt;eb2f424503c748f4b0b738eb01623d40</title>
<path fill="none" stroke="#7b8894" d="M533.8,-1020.51C533.8,-1003.56 533.8,-990.13 533.8,-990.13 533.8,-990.13 400,-990.13 400,-990.13 400,-990.13 400,-941.05 400,-941.05"/>
<polygon fill="#7b8894" stroke="#7b8894" points="403.5,-941.05 400,-931.05 396.5,-941.05 403.5,-941.05"/>
</g>
<!-- 47039549596b447684ef9b54e12c67a5&#45;&gt;2790f7fc33f244a7bdd1ba4d8a7fd73c -->
<g id="edge17" class="edge">
<title>47039549596b447684ef9b54e12c67a5&#45;&gt;2790f7fc33f244a7bdd1ba4d8a7fd73c</title>
<path fill="none" stroke="#7b8894" d="M584.2,-1020.5C584.2,-1020.5 584.2,-941.06 584.2,-941.06"/>
<polygon fill="#7b8894" stroke="#7b8894" points="587.7,-941.06 584.2,-931.06 580.7,-941.06 587.7,-941.06"/>
</g>
<!-- 315927a0b97941a494520b7d2c5178a9 -->
<g id="node8" class="node">
<title>315927a0b97941a494520b7d2c5178a9</title>
<image xlink:href="/home/riteshsonawane/.local/lib/python3.13/site-packages/resources/k8s/compute/deploy.png" width="100.8px" height="100.8px" preserveAspectRatio="xMinYMin meet" x="270.6" y="-674.6"/>
<text text-anchor="middle" x="321" y="-562.2" font-family="Sans-Serif" font-size="13.00" fill="#2d3436">Guardrails</text>
</g>
<!-- eb2f424503c748f4b0b738eb01623d40&#45;&gt;315927a0b97941a494520b7d2c5178a9 -->
<g id="edge5" class="edge">
<title>eb2f424503c748f4b0b738eb01623d40&#45;&gt;315927a0b97941a494520b7d2c5178a9</title>
<path fill="none" stroke="#7b8894" d="M360.5,-793.11C360.5,-793.11 360.5,-703.93 360.5,-703.93"/>
<polygon fill="#7b8894" stroke="#7b8894" points="364,-703.93 360.5,-693.93 357,-703.93 364,-703.93"/>
</g>
<!-- 64ca5d57d8234ad684e7bce3be7daff0 -->
<g id="node9" class="node">
<title>64ca5d57d8234ad684e7bce3be7daff0</title>
<image xlink:href="/home/riteshsonawane/.local/lib/python3.13/site-packages/resources/k8s/compute/pod.png" width="100.8px" height="100.8px" preserveAspectRatio="xMinYMin meet" x="31.6" y="-437.4"/>
<text text-anchor="middle" x="82" y="-325" font-family="Sans-Serif" font-size="13.00" fill="#2d3436">Guardrails Pod 1</text>
</g>
<!-- 315927a0b97941a494520b7d2c5178a9&#45;&gt;64ca5d57d8234ad684e7bce3be7daff0 -->
<g id="edge6" class="edge">
<title>315927a0b97941a494520b7d2c5178a9&#45;&gt;64ca5d57d8234ad684e7bce3be7daff0</title>
<path fill="none" stroke="#7b8894" d="M270.61,-624.2C200.49,-624.2 82,-624.2 82,-624.2 82,-624.2 82,-466.8 82,-466.8"/>
<polygon fill="#7b8894" stroke="#7b8894" points="85.5,-466.8 82,-456.8 78.5,-466.8 85.5,-466.8"/>
</g>
<!-- e536b82183484f4c883bdfb5e4297003 -->
<g id="node10" class="node">
<title>e536b82183484f4c883bdfb5e4297003</title>
<image xlink:href="/home/riteshsonawane/.local/lib/python3.13/site-packages/resources/k8s/compute/pod.png" width="100.8px" height="100.8px" preserveAspectRatio="xMinYMin meet" x="190.6" y="-437.4"/>
<text text-anchor="middle" x="241" y="-325" font-family="Sans-Serif" font-size="13.00" fill="#2d3436">Guardrails Pod 2</text>
</g>
<!-- 315927a0b97941a494520b7d2c5178a9&#45;&gt;e536b82183484f4c883bdfb5e4297003 -->
<g id="edge7" class="edge">
<title>315927a0b97941a494520b7d2c5178a9&#45;&gt;e536b82183484f4c883bdfb5e4297003</title>
<path fill="none" stroke="#7b8894" d="M281,-555.91C281,-555.91 281,-466.73 281,-466.73"/>
<polygon fill="#7b8894" stroke="#7b8894" points="284.5,-466.73 281,-456.73 277.5,-466.73 284.5,-466.73"/>
</g>
<!-- 396925bb0a5541b6a62adbccaef2319b -->
<g id="node11" class="node">
<title>396925bb0a5541b6a62adbccaef2319b</title>
<image xlink:href="/home/riteshsonawane/.local/lib/python3.13/site-packages/resources/k8s/compute/pod.png" width="100.8px" height="100.8px" preserveAspectRatio="xMinYMin meet" x="349.6" y="-437.4"/>
<text text-anchor="middle" x="400" y="-325" font-family="Sans-Serif" font-size="13.00" fill="#2d3436">Guardrails Pod 3</text>
</g>
<!-- 315927a0b97941a494520b7d2c5178a9&#45;&gt;396925bb0a5541b6a62adbccaef2319b -->
<g id="edge8" class="edge">
<title>315927a0b97941a494520b7d2c5178a9&#45;&gt;396925bb0a5541b6a62adbccaef2319b</title>
<path fill="none" stroke="#7b8894" d="M360.5,-555.91C360.5,-555.91 360.5,-466.73 360.5,-466.73"/>
<polygon fill="#7b8894" stroke="#7b8894" points="364,-466.73 360.5,-456.73 357,-466.73 364,-466.73"/>
</g>
<!-- 4f102618f7d14fbca8a33eddfbd6ee0c -->
<g id="node13" class="node">
<title>4f102618f7d14fbca8a33eddfbd6ee0c</title>
<image xlink:href="/home/riteshsonawane/.local/lib/python3.13/site-packages/resources/k8s/compute/deploy.png" width="100.8px" height="100.8px" preserveAspectRatio="xMinYMin meet" x="508.6" y="-674.6"/>
<text text-anchor="middle" x="559" y="-562.2" font-family="Sans-Serif" font-size="13.00" fill="#2d3436">Red Team</text>
</g>
<!-- 2790f7fc33f244a7bdd1ba4d8a7fd73c&#45;&gt;4f102618f7d14fbca8a33eddfbd6ee0c -->
<g id="edge9" class="edge">
<title>2790f7fc33f244a7bdd1ba4d8a7fd73c&#45;&gt;4f102618f7d14fbca8a33eddfbd6ee0c</title>
<path fill="none" stroke="#7b8894" d="M559,-793.11C559,-793.11 559,-703.93 559,-703.93"/>
<polygon fill="#7b8894" stroke="#7b8894" points="562.5,-703.93 559,-693.93 555.5,-703.93 562.5,-703.93"/>
</g>
<!-- 6fa6cb334ea44ecf8c840f929731fb19 -->
<g id="node14" class="node">
<title>6fa6cb334ea44ecf8c840f929731fb19</title>
<image xlink:href="/home/riteshsonawane/.local/lib/python3.13/site-packages/resources/k8s/compute/pod.png" width="100.8px" height="100.8px" preserveAspectRatio="xMinYMin meet" x="508.6" y="-437.4"/>
<text text-anchor="middle" x="559" y="-325" font-family="Sans-Serif" font-size="13.00" fill="#2d3436">Red Team Pod 1</text>
</g>
<!-- 4f102618f7d14fbca8a33eddfbd6ee0c&#45;&gt;6fa6cb334ea44ecf8c840f929731fb19 -->
<g id="edge10" class="edge">
<title>4f102618f7d14fbca8a33eddfbd6ee0c&#45;&gt;6fa6cb334ea44ecf8c840f929731fb19</title>
<path fill="none" stroke="#7b8894" d="M542.2,-555.91C542.2,-555.91 542.2,-466.73 542.2,-466.73"/>
<polygon fill="#7b8894" stroke="#7b8894" points="545.7,-466.73 542.2,-456.73 538.7,-466.73 545.7,-466.73"/>
</g>
<!-- ae0380de9d46440d9ff6b039fd01cdbe -->
<g id="node15" class="node">
<title>ae0380de9d46440d9ff6b039fd01cdbe</title>
<image xlink:href="/home/riteshsonawane/.local/lib/python3.13/site-packages/resources/k8s/compute/pod.png" width="100.8px" height="100.8px" preserveAspectRatio="xMinYMin meet" x="667.6" y="-437.4"/>
<text text-anchor="middle" x="718" y="-325" font-family="Sans-Serif" font-size="13.00" fill="#2d3436">Red Team Pod 2</text>
</g>
<!-- 4f102618f7d14fbca8a33eddfbd6ee0c&#45;&gt;ae0380de9d46440d9ff6b039fd01cdbe -->
<g id="edge11" class="edge">
<title>4f102618f7d14fbca8a33eddfbd6ee0c&#45;&gt;ae0380de9d46440d9ff6b039fd01cdbe</title>
<path fill="none" stroke="#7b8894" d="M575.8,-556.15C575.8,-526.5 575.8,-498.4 575.8,-498.4 575.8,-498.4 718,-498.4 718,-498.4 718,-498.4 718,-466.84 718,-466.84"/>
<polygon fill="#7b8894" stroke="#7b8894" points="721.5,-466.84 718,-456.84 714.5,-466.84 721.5,-466.84"/>
</g>
<!-- 989607fb02944bfab2ab8fc91e9830d2 -->
<g id="node17" class="node">
<title>989607fb02944bfab2ab8fc91e9830d2</title>
<image xlink:href="/home/riteshsonawane/.local/lib/python3.13/site-packages/resources/onprem/queue/nats.png" width="100.8px" height="100.8px" preserveAspectRatio="xMinYMin meet" x="667.6" y="-195.7"/>
<text text-anchor="middle" x="718" y="-87.65" font-family="Sans-Serif" font-size="13.00" fill="#2d3436">NATS</text>
<text text-anchor="middle" x="718" y="-68.9" font-family="Sans-Serif" font-size="13.00" fill="#2d3436">Message Queue</text>
</g>
<!-- 6fa6cb334ea44ecf8c840f929731fb19&#45;&gt;989607fb02944bfab2ab8fc91e9830d2 -->
<g id="edge14" class="edge">
<title>6fa6cb334ea44ecf8c840f929731fb19&#45;&gt;989607fb02944bfab2ab8fc91e9830d2</title>
<path fill="none" stroke="#7b8894" d="M559,-318.92C559,-294.72 559,-273.35 559,-273.35 559,-273.35 701.2,-273.35 701.2,-273.35 701.2,-273.35 701.2,-239.36 701.2,-239.36"/>
<polygon fill="#7b8894" stroke="#7b8894" points="704.7,-239.36 701.2,-229.36 697.7,-239.36 704.7,-239.36"/>
</g>
<!-- ae0380de9d46440d9ff6b039fd01cdbe&#45;&gt;989607fb02944bfab2ab8fc91e9830d2 -->
<g id="edge15" class="edge">
<title>ae0380de9d46440d9ff6b039fd01cdbe&#45;&gt;989607fb02944bfab2ab8fc91e9830d2</title>
<path fill="none" stroke="#7b8894" d="M734.8,-318.71C734.8,-318.71 734.8,-239.53 734.8,-239.53"/>
<polygon fill="#7b8894" stroke="#7b8894" points="738.3,-239.53 734.8,-229.53 731.3,-239.53 738.3,-239.53"/>
</g>
<!-- fd399d6026724971a5839e1c2e5092cc -->
<g id="node16" class="node">
<title>fd399d6026724971a5839e1c2e5092cc</title>
<image xlink:href="/home/riteshsonawane/.local/lib/python3.13/site-packages/resources/onprem/gitops/argocd.png" width="100.8px" height="100.8px" preserveAspectRatio="xMinYMin meet" x="667.6" y="-911.8"/>
<text text-anchor="middle" x="718" y="-799.4" font-family="Sans-Serif" font-size="13.00" fill="#2d3436">Argo Workflows</text>
</g>
<!-- fd399d6026724971a5839e1c2e5092cc&#45;&gt;989607fb02944bfab2ab8fc91e9830d2 -->
<g id="edge12" class="edge">
<title>fd399d6026724971a5839e1c2e5092cc&#45;&gt;989607fb02944bfab2ab8fc91e9830d2</title>
<path fill="none" stroke="#7b8894" d="M768.07,-861.4C778.5,-861.4 786.4,-861.4 786.4,-861.4 786.4,-861.4 786.4,-145.3 786.4,-145.3 786.4,-145.3 779.58,-145.3 779.58,-145.3"/>
<polygon fill="#7b8894" stroke="#7b8894" points="779.58,-141.8 769.58,-145.3 779.58,-148.8 779.58,-141.8"/>
</g>
<!-- 3fe6de2d68634738b28ce59faa5f5525 -->
<g id="node18" class="node">
<title>3fe6de2d68634738b28ce59faa5f5525</title>
<image xlink:href="/home/riteshsonawane/.local/lib/python3.13/site-packages/resources/k8s/compute/pod.png" width="100.8px" height="100.8px" preserveAspectRatio="xMinYMin meet" x="667.6" y="-674.6"/>
<text text-anchor="middle" x="718" y="-566.55" font-family="Sans-Serif" font-size="13.00" fill="#2d3436">Red Team Task</text>
<text text-anchor="middle" x="718" y="-547.8" font-family="Sans-Serif" font-size="13.00" fill="#2d3436">Runner</text>
</g>
<!-- fd399d6026724971a5839e1c2e5092cc&#45;&gt;3fe6de2d68634738b28ce59faa5f5525 -->
<g id="edge13" class="edge">
<title>fd399d6026724971a5839e1c2e5092cc&#45;&gt;3fe6de2d68634738b28ce59faa5f5525</title>
<path fill="none" stroke="#7b8894" d="M718,-793.11C718,-793.11 718,-718.23 718,-718.23"/>
<polygon fill="#7b8894" stroke="#7b8894" points="721.5,-718.23 718,-708.23 714.5,-718.23 721.5,-718.23"/>
</g>
<!-- cbb03714d82d46a1acc5ea1d2dcc6c77 -->
<g id="node19" class="node">
<title>cbb03714d82d46a1acc5ea1d2dcc6c77</title>
<image xlink:href="/home/riteshsonawane/.local/lib/python3.13/site-packages/resources/k8s/compute/sts.png" width="100.8px" height="100.8px" preserveAspectRatio="xMinYMin meet" x="349.6" y="-195.7"/>
<text text-anchor="middle" x="400" y="-87.65" font-family="Sans-Serif" font-size="13.00" fill="#2d3436">MinIO</text>
<text text-anchor="middle" x="400" y="-68.9" font-family="Sans-Serif" font-size="13.00" fill="#2d3436">(Object Storage)</text>
</g>
<!-- 922913abf05d4ae088531f9d3afa4d0a -->
<g id="node20" class="node">
<title>922913abf05d4ae088531f9d3afa4d0a</title>
<image xlink:href="/home/riteshsonawane/.local/lib/python3.13/site-packages/resources/k8s/compute/sts.png" width="100.8px" height="100.8px" preserveAspectRatio="xMinYMin meet" x="508.6" y="-195.7"/>
<text text-anchor="middle" x="559" y="-87.65" font-family="Sans-Serif" font-size="13.00" fill="#2d3436">KeyDB</text>
<text text-anchor="middle" x="559" y="-68.9" font-family="Sans-Serif" font-size="13.00" fill="#2d3436">(Redis Cache)</text>
</g>
</g>
</svg>
